<svg width="49" height="49" fill="none" xmlns="http://www.w3.org/2000/svg"><circle cx="24.5" cy="24.5" r="23.5" stroke="#323232" stroke-width="2"/><path d="M32.0618 19.7151a9.0723 9.0723 0 00.9129-3.5492 9.0376 9.0376 0 00-.5696-3.6156.7534.7534 0 00-.2526-.3589.7949.7949 0 00-.4151-.1649.803.803 0 00-.4404.0835.7684.7684 0 00-.32.3044c-.9912 1.7138-3.1217 4.477-4.6826 4.6054h-.0702a13.0052 13.0052 0 00-2.1774-.2265 13.0564 13.0564 0 00-2.1852.2265h-.0546c-1.5608-.1208-3.7226-2.884-4.7215-4.5978a.766.766 0 00-.3185-.3254.8022.8022 0 00-.453-.0935.7942.7942 0 00-.4279.1714.7525.7525 0 00-.2522.3758 8.9963 8.9963 0 00-.5912 3.6082 9.0262 9.0262 0 00.8955 3.549c-1.3579.1661-3.0826.5889-3.707 1.6534a1.613 1.613 0 00-.2312.8305c0 .2917.0798.5782.2312.8305.1788.3084.4449.5611.767.7283a1.9737 1.9737 0 001.0514.2154 5.6787 5.6787 0 001.8886-.3624 6.3446 6.3446 0 00.1015 1.2155 25.8393 25.8393 0 001.3657 3.9259c.1483.3549.3122.755.3981.9966a10.9592 10.9592 0 00-.601 1.8724c-.037.4521.0213.9067.1716 1.3364.1503.4296.3893.8251.7025 1.1625C19.2082 35.3658 21.1983 36 24.0234 36c2.8251 0 4.823-.6342 5.9468-1.8875a3.2918 3.2918 0 00.7052-1.1617 3.2142 3.2142 0 00.1689-1.3372 10.9341 10.9341 0 00-.5931-1.8724c.0858-.2416.2497-.6342.3902-.9966a24.4619 24.4619 0 001.3657-3.9259 5.8427 5.8427 0 00.1093-1.2155 5.6706 5.6706 0 001.8262.3624 1.99 1.99 0 001.0545-.2158c.3233-.167.5909-.4195.7717-.7279A1.613 1.613 0 0036 22.1914a1.613 1.613 0 00-.2312-.8305c-.6166-1.0268-2.3413-1.4797-3.707-1.6458zm-.7414-5.0131c.2814 1.5788.0066 3.2033-.7805 4.6129a8.3028 8.3028 0 00-.6243-.6568 5.6171 5.6171 0 00-1.4906-.9513c1.1256-.8447 2.1033-1.8593 2.8954-3.0048zm-14.6017 0c.7842 1.1535 1.7598 2.1738 2.8875 3.0199a5.1135 5.1135 0 00-1.475.9513 7.978 7.978 0 00-.6321.6568c-.7894-1.4143-1.0643-3.0443-.7804-4.628zm-3.0749 7.5951c-.0702-.1208-.0468-.1585 0-.1887.1795-.2945 1.0848-.755 2.8173-.9287a9.6168 9.6168 0 00-.2341.6644c-1.0145.5058-2.3725.8229-2.5832.453zm16.8259 2.2649a24.9832 24.9832 0 01-1.2643 3.6315 14.7028 14.7028 0 00-.5385 1.4118l-.0468.2341.0858.2114c.2469.5756.4478 1.1688.601 1.7742a1.7535 1.7535 0 01-.1194.6983 1.7966 1.7966 0 01-.3879.6002c-.5619.6267-1.8418 1.3665-4.7684 1.3665-2.9266 0-4.2065-.7549-4.7684-1.3665-.3369-.3527-.5188-.8184-.5072-1.2985a12.0724 12.0724 0 01.6087-1.7742l.0858-.2114-.0546-.2341a11.9678 11.9678 0 00-.5307-1.4194 24.3157 24.3157 0 01-1.2799-3.6541 5.2533 5.2533 0 01.2124-2.5991c.2883-.8367.7834-1.5928 1.4421-2.2025 1.1785-1.1476 3.8475-1.4043 4.7762-1.4118.9287-.0076 3.5431.2566 4.7918 1.4269.6628.6039 1.1613 1.3567 1.4512 2.1917.29.835.3625 1.7263.2111 2.5948v.0302zm3.9021-2.2649c-.2029.3624-1.5608.0528-2.5286-.4454-.0624-.2265-.1404-.4455-.2263-.672 1.7169.1737 2.6144.6342 2.7861.9287.039.0302.0547.0679-.0156.1887h-.0156z" fill="#323232"/></svg>