<svg width="49" height="49" fill="none" xmlns="http://www.w3.org/2000/svg"><circle cx="24.5" cy="24.5" r="23.5" stroke="#323232" stroke-width="2"/><path d="M24 8a8.0094 8.0094 0 00-7.9435 7.0588H16v15.8871h16V15.0588h-.0565A8.0095 8.0095 0 0024 8zm6.1176 21.0635H17.8824v-8.6776a1.6847 1.6847 0 001.4494.6023c1.2141 0 2.0047-.6776 2.0047-1.5341v-.8188a.808.808 0 01.2023-.6278.8088.8088 0 01.6024-.2688.8098.8098 0 01.8047.8966v3.0965a1.759 1.759 0 00.6098 1.3104 1.7605 1.7605 0 001.3855.4119 1.7503 1.7503 0 001.9953-1.647v-2.08a1.2703 1.2703 0 011.2659-1.3799 1.2696 1.2696 0 01.9362.4117 1.2704 1.2704 0 01.3296.9682.3869.3869 0 000 .0847 1.0636 1.0636 0 00.6306.8376V29.12l.0188-.0565zM22.5882 38.5882A1.412 1.412 0 0024 40a1.4118 1.4118 0 001.4118-1.4118v-6.7011h-2.8236v6.7011z" fill="#323232"/></svg>