<svg width="36" height="36" fill="none" xmlns="http://www.w3.org/2000/svg"><path d="M18 35c9.3888 0 17-7.6112 17-17S27.3888 1 18 1 1 8.6112 1 18s7.6112 17 17 17z" stroke="#fff" stroke-opacity=".5" stroke-width="2"/><g opacity="1" fill="#fff"><path d="M22.92 18A4.96 4.96 0 1113 18c.001-.3842.048-.767.14-1.14h-.9v6.84h11.4v-6.84h-.9a5.391 5.391 0 01.18 1.14z"/><path d="M18 20.66a2.6602 2.6602 0 001.8539-4.5479 2.6594 2.6594 0 00-2.8964-.5676A2.6604 2.6604 0 0015.32 18a2.6696 2.6696 0 001.6575 2.4606c.3244.133.6719.2007 1.0225.1994zM23.68 12.3h-3.04v3.04h3.04V12.3z"/><path d="M18 2a16 16 0 100 32 16 16 0 000-32zm8 21.7a2.2799 2.2799 0 01-2.32 2.3h-11.4A2.2901 2.2901 0 0110 23.7V12.3a2.2895 2.2895 0 01.6637-1.6222A2.2897 2.2897 0 0112.28 10h11.39a2.2909 2.2909 0 011.6488.6599c.217.2143.3891.4697.5061.7513.1169.2817.1765.5838.1751.8888v11.4z"/></g></svg>