<svg width="49" height="49" fill="none" xmlns="http://www.w3.org/2000/svg"><circle cx="24.5" cy="24.5" r="23.5" stroke="#323232" stroke-width="2"/><path d="M31.9923 26.5968c-.3487-7.6574-7.1271-15.0729-7.4292-15.3953h-.0387l-.093-.1048-.1007-.0645h-.4338L23.7497 11h-.0388l-.1394.0967-.0852.0726h-.0388c-.3021.3546-7.0805 7.7782-7.4446 15.4275a1.225 1.225 0 000 .1692v.8786c.2944 8.3022 7.7468 10.3334 7.8087 10.3495h.1937a.7945.7945 0 00.1937 0c.0697 0 7.5144-2.0876 7.801-10.3495v-.8786c0-.0564-.0077-.1128-.0077-.1692zM18.048 23.7676c1.5474 1.3838 3.2969 2.5021 5.1826 3.3128v3.6674c-1.8979-.9753-4.8185-2.7082-5.6784-4.2316a14.6253 14.6253 0 01.4726-2.7486h.0232zm1.5494-4.1108c1.0132 1.1012 2.2564 1.9451 3.6332 2.4665v3.1758c-1.7309-.7602-3.3079-1.8541-4.648-3.2242a24.1224 24.1224 0 011.0148-2.4181zm9.8462 2.4181c-1.3395 1.3708-2.9168 2.4649-4.6481 3.2242v-3.1758c1.3657-.5257 2.5979-1.3694 3.6022-2.4665.3908.7745.74 1.571 1.0459 2.3859v.0322zm-4.6481-1.6604v-6.4483a36.4367 36.4367 0 012.8276 4.1753c-.7472.9884-1.7263 1.76-2.8431 2.2407l.0155.0323zm0 10.3495v-3.6836c1.8929-.8035 3.6503-1.9164 5.2058-3.2967.2373.9011.3878 1.8245.4493 2.7566-.8521 1.4993-3.7726 3.2242-5.6706 4.1914l.0155.0323zm-1.5494-10.3495c-1.1219-.4869-2.102-1.2704-2.843-2.273a36.4548 36.4548 0 012.8275-4.2156l.0155 6.4886zm-5.5312 8.6487c1.6943 1.3852 3.547 2.5467 5.5157 3.4579v3.5466c-1.4084-.5954-2.651-1.5484-3.6145-2.7719-.9635-1.2236-1.6171-2.6787-1.9012-4.2326zm7.0651 7.0125v-3.5626c1.9704-.9047 3.8235-2.0638 5.5157-3.4499-.272 1.5598-.921 3.0219-1.886 4.2487-.9649 1.2268-2.214 2.1779-3.6297 2.7638z" fill="#323232"/></svg>