<svg width="108" height="39" fill="none" xmlns="http://www.w3.org/2000/svg"><path d="M44.582 28.426a2.0732 2.0732 0 00.552-.1109v1.4112a3.1934 3.1934 0 01-1.1802.2217c-.3421.0359-.6862-.0419-.9846-.2225-.2985-.1807-.5365-.4552-.681-.7855-.8888.7574-2.0004 1.1605-3.1409 1.1391-1.5134 0-2.9125-.877-2.9125-2.7015 0-2.2579 1.9797-2.9535 3.712-2.9535a10.4827 10.4827 0 012.1701.2621v-.3125c0-1.0987-.7615-1.8749-2.1892-1.8749-1.0337.0035-2.0551.237-2.9981.6855v-1.8144a9.6118 9.6118 0 013.1885-.5847c2.3604 0 3.8072 1.1895 3.8072 3.8607v3.1652a.5974.5974 0 00.1212.4183c.0909.1171.2218.1913.3642.2066a.4939.4939 0 00.1713-.01zm-6.4341-1.2097c.0291.3783.1988.7288.4719.9745.2731.2458.6272.3666.9843.336h.1047c.8969.0137 1.7625-.3486 2.4081-1.0081v-1.5221a9.1449 9.1449 0 00-1.8085-.2217c-1.0469 0-2.1605.3528-2.1605 1.4616v-.0202zM50.5022 20.7651c.898-.0208 1.7851.2123 2.5698.6753v1.8044c-.6795-.487-1.4829-.7437-2.3033-.7359-.7256-.0613-1.4446.1844-1.9994.6833-.5548.499-.9003 1.2105-.9608 1.9787-.0604.7682.1691 1.5305.6383 2.1198.4692.5893 1.1399.9577 1.865 1.0244.1521.0101.3047.0101.4569 0 .8504-.0001 1.6864-.2328 2.427-.6754v1.8144c-.8648.4208-1.8087.6276-2.7602.6048a3.9789 3.9789 0 01-1.6293-.2198c-.5242-.1862-1.0084-.4802-1.425-.8651-.4165-.385-.7572-.8533-1.0023-1.3781a4.6508 4.6508 0 01-.4263-1.6799v-.4334a4.81 4.81 0 01.2738-1.7616c.1999-.5624.5026-1.0775.8907-1.5158.3882-.4382.8542-.791 1.3714-1.0382a4.1131 4.1131 0 011.6425-.4019 2.3958 2.3958 0 01.3712 0zM62.6661 28.426a2.074 2.074 0 00.552-.1109v1.4112a3.1937 3.1937 0 01-1.1802.2217c-.3421.0359-.6862-.0419-.9847-.2225-.2984-.1807-.5364-.4552-.6809-.7855-.8889.7574-2.0004 1.1605-3.141 1.1391-1.5133 0-2.9124-.877-2.9124-2.7015 0-2.2579 1.9797-2.9535 3.7119-2.9535a10.481 10.481 0 012.1701.2621v-.3125c0-1.0987-.7614-1.8749-2.1891-1.8749-1.0337.0035-2.0551.237-2.9981.6855v-1.8144a9.6118 9.6118 0 013.1885-.5847c2.3604 0 3.8071 1.1895 3.8071 3.8607v3.1652a.5984.5984 0 00.1212.4183c.091.1171.2219.1913.3643.2066a.4939.4939 0 00.1713-.01zm-6.4341-1.2097c.0291.3783.1988.7288.4719.9745.2731.2458.6271.3666.9843.336h.1047c.8968.0137 1.7624-.3486 2.408-1.0081v-1.5221a9.143 9.143 0 00-1.8084-.2217c-1.0565 0-2.1605.3528-2.1605 1.4616v-.0202zM72.974 16.9648v12.8623h-1.6751V28.426c-.3712.5204-.8539.9399-1.4083 1.2238-.5544.284-1.1646.4242-1.7803.4091-1.1137-.0777-2.1579-.6011-2.9208-1.464-.7628-.8629-1.1873-2.0008-1.1873-3.1829 0-1.1821.4245-2.32 1.1873-3.1829.7629-.8629 1.8071-1.3863 2.9208-1.464a3.6239 3.6239 0 011.65.346c.5188.2442.9794.6081 1.3482 1.0652v-5.2115h1.9036-.0381zm-4.5305 5.524c-.7321 0-1.4342.3079-1.9518.8562-.5176.5482-.8084 1.2917-.8084 2.067 0 .7753.2908 1.5188.8084 2.067.5176.5482 1.2197.8562 1.9518.8562.5664.0047 1.1213-.1692 1.5942-.4994.4728-.3303.8423-.8021 1.0613-1.3553v-2.1471c-.2256-.5474-.5969-1.0134-1.0685-1.341-.4716-.3276-1.023-.5026-1.587-.5036zM78.9989 20.7651c3.3122 0 4.4543 2.8325 3.9213 5.3827h-6.2723c.2094 1.5826 1.6657 2.2378 3.1885 2.2378.9117.0006 1.8121-.2128 2.6365-.6249v1.6934c-.9437.4264-1.963.6327-2.9886.6048-2.5508 0-4.759-1.5422-4.759-4.6469-.0544-1.1717.3316-2.3185 1.0737-3.1894.7421-.8709 1.7797-1.395 2.8858-1.4575h.3141zm.0856 1.6329a2.1572 2.1572 0 00-.8824.1111 2.2441 2.2441 0 00-.7749.4605 2.3926 2.3926 0 00-.5491.7399 2.5183 2.5183 0 00-.2397.9062v.0604h4.6162a2.1935 2.1935 0 00-.0718-.8069 2.1207 2.1207 0 00-.3581-.7164 1.9911 1.9911 0 00-.5898-.5166 1.882 1.882 0 00-.7316-.2382 1.4619 1.4619 0 00-.4188 0zM84.8048 21.007h1.6466v1.0987c.3508-.4145.7788-.7476 1.2571-.9784a3.6297 3.6297 0 011.5221-.3622c.513-.0343 1.0251.0788 1.4825.3272.4573.2484.8428.6229 1.1159 1.084.3727-.4283.8221-.7737 1.3222-1.016a3.951 3.951 0 011.5903-.3952 2.9238 2.9238 0 011.2709.2444c.4024.1759.7651.4403 1.0638.7758.2987.3354.5268.7343.6691 1.1701.1423.4358.1955.8986.1562 1.3579v5.5138h-1.9036v-5.4534c.0426-.4437-.0829-.8871-.3488-1.233-.2659-.3459-.6505-.5658-1.0694-.6116h-.2284a2.7404 2.7404 0 00-1.1315.3625c-.3491.2031-.6543.4814-.8958.8169v6.1186h-1.9036v-5.4534c.0426-.4437-.0829-.8871-.3488-1.233-.2659-.3459-.6505-.5658-1.0694-.6116h-.2284a2.844 2.844 0 00-1.2499.4151c-.3821.2355-.7095.5586-.9583.9457v5.9473h-1.7608V21.007zM106.096 21.007H108l-3.902 10.0095c-.952 2.2983-2.085 3.0241-3.351 3.0241a5.0396 5.0396 0 01-1.0942-.1512v-1.633c.2745.0885.5602.1327.8472.131.952 0 1.58-.6753 2.065-2.016l.172-.4435-3.9599-8.8907h2.0269l2.856 6.6529 2.436-6.6831zM38.6999 1.5221v5.04c.3515-.3797.7704-.6821 1.2327-.8897a3.6257 3.6257 0 011.4609-.3198 3.078 3.078 0 011.2552.1818c.4031.1474.7748.3774 1.0939.677.3191.2995.5793.6627.7658 1.0688.1865.4062.2956.8472.3211 1.298a2.4439 2.4439 0 010 .373v5.4533h-1.9036V9.2032a2.0255 2.0255 0 00-.052-.7566 1.9593 1.9593 0 00-.3253-.6758 1.8384 1.8384 0 00-.5474-.489 1.7374 1.7374 0 00-.6838-.2257 1.448 1.448 0 00-.2951 0c-.4703.0296-.9269.1788-1.3311.435-.4043.2562-.7443.6118-.9913 1.0367v5.8465h-1.9036V1.5221h1.9036zM49.9025 2.4192v3.145h3.0172V7.288h-3.0172V11.32c0 1.1592.5045 1.5422 1.58 1.5422a4.2208 4.2208 0 001.6847-.3528v1.6935a6.3257 6.3257 0 01-2.2367.383 2.4131 2.4131 0 01-.9957-.0735 2.4985 2.4985 0 01-.8928-.4725 2.6633 2.6633 0 01-.6532-.7992 2.8098 2.8098 0 01-.3137-1.0034 2.7033 2.7033 0 010-.5544V7.2678h-1.5229V5.544h1.4943V2.8829l1.856-.4637zM55.2992 14.3843v-8.82h1.6466V6.663c.3508-.4146.7788-.7477 1.2571-.9784a3.6305 3.6305 0 011.5221-.3623c.513-.0342 1.0251.0788 1.4825.3272.4573.2484.8428.623 1.1159 1.084.3727-.4283.8221-.7736 1.3222-1.016a3.951 3.951 0 011.5903-.3952 2.9236 2.9236 0 011.2709.2445c.4024.1759.7651.4403 1.0638.7757.2987.3355.5268.7343.6691 1.1701.1423.4358.1955.8987.1562 1.358v5.5137h-1.9036V8.931a1.7787 1.7787 0 00-.0498-.6623 1.7219 1.7219 0 00-.2879-.5903 1.6151 1.6151 0 00-.4811-.4263 1.5262 1.5262 0 00-.5994-.196h-.2284a2.7429 2.7429 0 00-1.1353.3762c-.3493.2084-.6532.4924-.892.8334v6.1186h-1.9036V8.931a1.7772 1.7772 0 00-.0536-.671 1.7179 1.7179 0 00-.2975-.595 1.6111 1.6111 0 00-.4939-.4239 1.5228 1.5228 0 00-.6113-.185h-.2284a2.8437 2.8437 0 00-1.2498.4151c-.3821.2355-.7096.5586-.9584.9457v5.9574h-1.7227v.01zM72.974 1.512h-1.856v12.8623h1.856V1.512zM14.6957 0h-.1523L0 1.6128v28.2244L14.5434 39l14.5434-9.1628V1.6128L14.6957 0zm12.4875 28.678l-12.6398 7.9633L1.9036 28.678V17.1362l12.5827 7.9331v1.4414l-8.6328-5.4432v1.391l8.6709 5.5138v1.4717l-8.6613-5.4634v1.3911l8.6708 5.5138 8.747-5.5441v-5.9876l3.9023-2.4696V28.678zm0-13.2655l-3.474 2.1572-1.599 1.008-7.6144-4.7982v1.3911l6.5103 4.1026h-.0666l-.1428.0907-.9518.5746-5.3681-3.3869v1.391l4.2355 2.6713-.9994.7056-3.1981-2.0161v1.3911l2.1035 1.3104-2.1415 1.3608-12.5161-7.8826 12.5351-7.9835 12.6874 7.9129zm0-1.4011L14.4768 6.0481 1.9036 14.0013V3.4172L14.5529 2.016l12.6398 1.4012v10.5942h-.0095z" fill="#fff"/></svg>