<svg width="16" height="16" fill="none" xmlns="http://www.w3.org/2000/svg"><path d="M16 14.6652l-4.9215-4.9323a6.1445 6.1445 0 001.1199-4.3316 6.1387 6.1387 0 00-2.1136-3.9415A6.1128 6.1128 0 005.8623.0055 6.115 6.115 0 001.7776 1.812 6.141 6.141 0 00.0038 5.9185a6.1428 6.1428 0 001.481 4.2213 6.1173 6.1173 0 003.9477 2.0903 6.1109 6.1109 0 004.3141-1.1529L14.6586 16 16 14.6652zm-9.9185-4.2885a4.2445 4.2445 0 01-2.3616-.718A4.258 4.258 0 012.1543 7.747a4.2688 4.2688 0 01-.2419-2.4614 4.263 4.263 0 011.1634-2.1812 4.248 4.248 0 012.1764-1.166 4.2423 4.2423 0 012.456.2425 4.2529 4.2529 0 011.9077 1.569 4.2667 4.2667 0 01.7164 2.3668 4.2743 4.2743 0 01-1.2478 3.0096 4.2555 4.2555 0 01-3.003 1.2505z" fill="#323232"/></svg>