<svg width="49" height="49" fill="none" xmlns="http://www.w3.org/2000/svg"><circle cx="24.5" cy="24.5" r="23.5" stroke="#323232" stroke-width="2"/><path d="M27.5905 15.1189c0-1.0924-.4214-2.14-1.1716-2.9125C25.6688 11.434 24.6514 11 23.5905 11c-1.0609 0-2.0783.434-2.8284 1.2064-.7502.7725-1.1716 1.8201-1.1716 2.9125v11.9884c-1.0255 1.0777-1.5969 2.5282-1.5904 4.037a5.977 5.977 0 00.6699 2.7703c.4425.8521 1.0835 1.5778 1.8654 2.112.782.5342 1.6804.8602 2.6149.9488a5.5219 5.5219 0 002.7391-.4413c.8635-.3782 1.6223-.9712 2.2085-1.7258.5861-.7547.9812-1.6473 1.1498-2.5978a6.0056 6.0056 0 00-.1838-2.8487c-.2892-.9192-.7955-1.7502-1.4734-2.4183V15.1189zm.1431 16.0254a4.2918 4.2918 0 01-.4923 2.0476c-.3309.6281-.8122 1.1588-1.3982 1.5415a3.9909 3.9909 0 01-1.9502.6454 3.9717 3.9717 0 01-2.0086-.4142c-.6243-.3121-1.1608-.7833-1.5585-1.3689-.3978-.5856-.6435-1.2662-.714-1.9771a4.3052 4.3052 0 01.3114-2.0849c.2746-.6563.7076-1.2294 1.2578-1.6649V15.1189c0-.658.2538-1.2891.7057-1.7544.4519-.4653 1.0647-.7268 1.7038-.7268.639 0 1.2519.2615 1.7038.7268.4519.4653.7057 1.0964.7057 1.7544v12.5943c.5367.3851.9748.8984 1.2767 1.496a4.268 4.268 0 01.4569 1.9351z" fill="#323232"/><path d="M24.4573 28.5812V15.1763a.8317.8317 0 00-.2329-.5791.784.784 0 00-.5623-.2398.784.784 0 00-.5623.2398.8314.8314 0 00-.233.5791v13.4049c-.5305.1932-.9777.5733-1.2625 1.0732a2.5192 2.5192 0 00-.2936 1.6584c.0952.5711.3834 1.0893.8137 1.4628.4302.3735.9749.5784 1.5377.5784.5627 0 1.1074-.2049 1.5377-.5784.4302-.3735.7184-.8917.8136-1.4628.0951-.5712-.0088-1.1586-.2936-1.6584-.2847-.4999-.7319-.88-1.2625-1.0732zM34 14.2018h-4.7714v1.6377H34v-1.6377zM34 17.4773h-4.7714v1.6377H34v-1.6377zM34 20.7528h-4.7714v1.6377H34v-1.6377zM34 24.0283h-4.7714v1.6377H34v-1.6377z" fill="#323232"/></svg>