<svg width="36" height="36" fill="none" xmlns="http://www.w3.org/2000/svg"><path d="M18 35c9.3888 0 17-7.6112 17-17S27.3888 1 18 1 1 8.6112 1 18s7.6112 17 17 17z" stroke="#fff" stroke-opacity=".5" stroke-width="2"/><path d="M18 2a16 16 0 100 32 16 16 0 000-32zm7.94 12.81c-.25 6.52-3.46 10.83-11 10.7h-.48c-.45 0-4.55-.44-5.35-1.82a7.3202 7.3202 0 005.12-1.14c-1.05-.29-2.92-.46-3.25-2.85a2.31 2.31 0 001.3.12C11 19 9.53 18.3 9.61 16.17c.418.3193.9345.482 1.46.46-.77-.23-2.15-3.24-1-4.78 2 1.79 4.07 3.48 7.8 3.64.23-2.21 1.24-3.7 3.17-4.32a3.6095 3.6095 0 012.1586-.0505A3.6094 3.6094 0 0125 12.31c.74-.23 1.45-.47 2.19-.69a2.2101 2.2101 0 01-.93 1.71 1.7693 1.7693 0 001.42-.47 2.9006 2.9006 0 01-1.74 1.95z" fill="#fff" fill-opacity="1"/></svg>