<svg width="36" height="36" fill="none" xmlns="http://www.w3.org/2000/svg"><path d="M18 35c9.3888 0 17-7.6112 17-17S27.3888 1 18 1 1 8.6112 1 18s7.6112 17 17 17z" stroke="#fff" stroke-opacity=".5" stroke-width="2"/><path d="M18.64 16.49a2.5807 2.5807 0 00.95-.18 1.2003 1.2003 0 00.64-.56 1.9997 1.9997 0 00.15-.8 1.5502 1.5502 0 00-.18-.7 1.0501 1.0501 0 00-.61-.51 3.0006 3.0006 0 00-1-.17h-2v3h.57c.59-.05 1.08-.06 1.48-.08zM20.12 19.08A4.8513 4.8513 0 0019 19h-2.39v3.5h2.45a3.2303 3.2303 0 001.21-.25 1.4599 1.4599 0 00.77-.62 1.8992 1.8992 0 00.22-.9 1.76 1.76 0 00-.26-1 1.5998 1.5998 0 00-.88-.65z" fill="#fff" fill-opacity=".8"/><path d="M18 2a16 16 0 100 32 16 16 0 000-32zm6.6 20.53a3.7002 3.7002 0 01-1.12 1.33 5.1702 5.1702 0 01-1.83.88 9.7608 9.7608 0 01-2.51.27H13V11h5.45a20.6022 20.6022 0 012.48.11 5.248 5.248 0 011.56.5 2.7496 2.7496 0 011.19 1.09 3.0497 3.0497 0 01.39 1.55 3.0802 3.0802 0 01-.54 1.8 3.46 3.46 0 01-1.53 1.2v.07a3.9999 3.9999 0 012.18 1.13 3.1997 3.1997 0 01.8 2.26 3.841 3.841 0 01-.38 1.82z" fill="#fff" fill-opacity=".8"/></svg>